<svg width="40" height="40" viewBox="0 0 40 40" fill="none" xmlns="http://www.w3.org/2000/svg">
<path d="M14 8.75C9.36669 8.75 5.41669 12.2167 5.41669 16.7167C5.41669 19.8217 6.87002 22.435 8.79669 24.6C10.7184 26.7583 13.1967 28.57 15.435 30.0867L19.3 32.7033C19.5067 32.8431 19.7505 32.9177 20 32.9177C20.2495 32.9177 20.4933 32.8431 20.7 32.7033L24.565 30.0867C26.805 28.57 29.2817 26.7583 31.2017 24.6C33.13 22.435 34.5834 19.8217 34.5834 16.7167C34.5834 12.2167 30.6334 8.75 26 8.75C23.61 8.75 21.5084 9.87 20 11.32C18.4917 9.87 16.3884 8.75 14 8.75Z" fill="#4BDB9B"/>
</svg>
