<svg width="40" height="40" viewBox="0 0 40 40" fill="none" xmlns="http://www.w3.org/2000/svg">
<path fill-rule="evenodd" clip-rule="evenodd" d="M17.2973 18.7388L18.7387 17.2973L29.9099 28.4685L28.4685 29.9099L17.2973 18.7388Z" fill="#979797"/>
<path d="M27.027 24.8649C26.4299 24.2678 25.4619 24.2678 24.8648 24.8649C24.2678 25.4619 24.2678 26.43 24.8648 27.027L30.2702 32.4324C30.8673 33.0295 31.8353 33.0295 32.4324 32.4324C33.0295 31.8354 33.0295 30.8673 32.4324 30.2703L27.027 24.8649Z" fill="#979797"/>
<path d="M22.7027 22.7027C26.8822 18.5232 26.8822 11.747 22.7027 7.56756C18.5233 3.38811 11.747 3.38811 7.56757 7.56756C3.38812 11.747 3.38812 18.5232 7.56757 22.7027C11.747 26.8822 18.5233 26.8822 22.7027 22.7027Z" fill="#979797"/>
<path d="M21.2611 21.2613C24.6445 17.8779 24.6445 12.3924 21.2611 9.00901C17.8777 5.62564 12.3922 5.62564 9.00886 9.00901C5.6255 12.3924 5.6255 17.8779 9.00886 21.2613C12.3922 24.6446 17.8777 24.6446 21.2611 21.2613Z" fill="#595959"/>
<path fill-rule="evenodd" clip-rule="evenodd" d="M12.8599 10.7024C11.1055 10.7024 9.68324 11.7615 9.68324 13.9111C9.68324 16.0608 14.4794 20.8949 15.2891 20.8949C16.0989 20.8949 20.895 16.0608 20.895 13.9111C20.895 11.7615 19.4728 10.7024 17.7184 10.7024C16.7439 10.7024 15.8719 11.1456 15.2891 11.8434C14.7064 11.1456 13.8344 10.7024 12.8599 10.7024Z" fill="#D2FF98"/>
</svg>
