<svg width="40" height="40" viewBox="0 0 40 40" fill="none" xmlns="http://www.w3.org/2000/svg">
<path d="M20 40C31.0457 40 40 31.0457 40 20C40 8.95431 31.0457 0 20 0C8.95431 0 0 8.95431 0 20C0 31.0457 8.95431 40 20 40Z" fill="#FFDD67"/>
<path d="M10 26C14.0501 26 17.3334 22.7167 17.3334 18.6667C17.3334 14.6166 14.0501 11.3333 10 11.3333C5.94993 11.3333 2.66669 14.6166 2.66669 18.6667C2.66669 22.7167 5.94993 26 10 26Z" fill="white"/>
<path d="M30 26C34.05 26 37.3333 22.7167 37.3333 18.6667C37.3333 14.6166 34.05 11.3333 30 11.3333C25.9499 11.3333 22.6666 14.6166 22.6666 18.6667C22.6666 22.7167 25.9499 26 30 26Z" fill="white"/>
<path d="M22.6667 16.6667C21.4667 15.8 18.5333 15.8 17.3333 16.6667C16.6 16 16.7333 15.2667 16 14.6C18.0667 13.0667 21.6 12.8 24 14.6C23.2667 15.2667 23.4 16 22.6667 16.6667Z" fill="#494949"/>
<path d="M30 10C25.2 10 21.3334 13.8667 21.3334 18.6667C21.3334 23.4667 25.2 27.3333 30 27.3333C34.8 27.3333 38.6667 23.4667 38.6667 18.6667C38.6667 13.8667 34.8 10 30 10ZM30 25.3333C26.3334 25.3333 23.3334 22.3333 23.3334 18.6667C23.3334 15 26.3334 12 30 12C33.6667 12 36.6667 15 36.6667 18.6667C36.6667 22.3333 33.6667 25.3333 30 25.3333ZM10 10C5.20004 10 1.33337 13.8667 1.33337 18.6667C1.33337 23.4667 5.20004 27.3333 10 27.3333C14.8 27.3333 18.6667 23.4667 18.6667 18.6667C18.6667 13.8667 14.8 10 10 10ZM10 25.3333C6.33337 25.3333 3.33337 22.3333 3.33337 18.6667C3.33337 15 6.33337 12 10 12C13.6667 12 16.6667 15 16.6667 18.6667C16.6667 22.3333 13.6667 25.3333 10 25.3333Z" fill="#494949"/>
<path d="M12 22.3333C13.4727 22.3333 14.6666 20.8409 14.6666 19C14.6666 17.159 13.4727 15.6667 12 15.6667C10.5272 15.6667 9.33331 17.159 9.33331 19C9.33331 20.8409 10.5272 22.3333 12 22.3333Z" fill="#664E27"/>
<path d="M27.9999 22.3333C29.4727 22.3333 30.6666 20.841 30.6666 19C30.6666 17.1591 29.4727 15.6667 27.9999 15.6667C26.5272 15.6667 25.3333 17.1591 25.3333 19C25.3333 20.841 26.5272 22.3333 27.9999 22.3333Z" fill="#664E27"/>
<path d="M16.4666 32.8667C20.3333 33.8667 24.4666 33.1333 27.7333 30.8667C28.5333 30.2667 26.9999 28.2 26.1999 28.7333C24.0666 30.2667 20.5999 31.2667 17.0666 30.3333C16.1999 30.1333 15.4666 32.6 16.4666 32.8667Z" fill="#664E27"/>
<path d="M34.1333 9.13333C32 7.33333 29.1333 6.53333 26.3333 7.06666C25.9333 7.13333 25.6 5.73333 26.0667 5.6C29.2667 5 32.6 5.93333 35.0667 8C35.4667 8.33333 34.4 9.4 34.1333 9.13333ZM13.6667 6.93333C10.8667 6.46666 8 7.2 5.86667 9C5.6 9.26666 4.53334 8.2 4.93334 7.86666C7.4 5.73333 10.7333 4.86666 13.9333 5.46666C14.4 5.6 14.0667 7 13.6667 6.93333Z" fill="#917524"/>
</svg>
